<svg width="24" height="25" viewBox="0 0 24 25" fill="none" xmlns="http://www.w3.org/2000/svg">
<path d="M5 12.3716C5 8.50559 8.13401 5.37158 12 5.37158M16.4999 7.87158L11.9999 12.3716M22 12.3716C22 17.8944 17.5228 22.3716 12 22.3716C6.47715 22.3716 2 17.8944 2 12.3716C2 6.84873 6.47715 2.37158 12 2.37158C17.5228 2.37158 22 6.84873 22 12.3716ZM13 12.3716C13 12.9239 12.5523 13.3716 12 13.3716C11.4477 13.3716 11 12.9239 11 12.3716C11 11.8193 11.4477 11.3716 12 11.3716C12.5523 11.3716 13 11.8193 13 12.3716Z" stroke="var(--Color-bg-Primary, #fff)" stroke-width="1.4" stroke-linecap="round" stroke-linejoin="round"/>
</svg>
