<svg width="24" height="24" viewBox="0 0 24 24" fill="none" xmlns="http://www.w3.org/2000/svg">
<path d="M11 3.99902H7.8C6.11984 3.99902 5.27976 3.99902 4.63803 4.326C4.07354 4.61362 3.6146 5.07257 3.32698 5.63705C3 6.27879 3 7.11887 3 8.79902V13.999C3 14.929 3 15.394 3.10222 15.7755C3.37962 16.8108 4.18827 17.6194 5.22354 17.8968C5.60504 17.999 6.07003 17.999 7 17.999V20.3345C7 20.8674 7 21.1338 7.10923 21.2706C7.20422 21.3896 7.34827 21.4589 7.50054 21.4587C7.67563 21.4585 7.88367 21.2921 8.29976 20.9592L10.6852 19.0509C11.1725 18.661 11.4162 18.4661 11.6875 18.3275C11.9282 18.2045 12.1844 18.1146 12.4492 18.0603C12.7477 17.999 13.0597 17.999 13.6837 17.999H15.2C16.8802 17.999 17.7202 17.999 18.362 17.672C18.9265 17.3844 19.3854 16.9255 19.673 16.361C20 15.7193 20 14.8792 20 13.199V12.999M20.1213 3.8777C21.2929 5.04928 21.2929 6.94877 20.1213 8.12034C18.9497 9.29192 17.0503 9.29192 15.8787 8.12034C14.7071 6.94877 14.7071 5.04928 15.8787 3.8777C17.0503 2.70613 18.9497 2.70613 20.1213 3.8777Z" stroke="white" stroke-width="2" stroke-linecap="round" stroke-linejoin="round"/>
</svg>
