<svg width="24" height="25" viewBox="0 0 24 25" fill="none" xmlns="http://www.w3.org/2000/svg">
<path d="M22 21.4224V19.4224C22 17.5585 20.7252 15.9924 19 15.5484M15.5 3.71312C16.9659 4.30651 18 5.74367 18 7.42236C18 9.10105 16.9659 10.5382 15.5 11.1316M17 21.4224C17 19.5586 17 18.6267 16.6955 17.8916C16.2895 16.9115 15.5108 16.1328 14.5307 15.7268C13.7956 15.4224 12.8638 15.4224 11 15.4224H8C6.13623 15.4224 5.20435 15.4224 4.46927 15.7268C3.48915 16.1328 2.71046 16.9115 2.30448 17.8916C2 18.6267 2 19.5586 2 21.4224M13.5 7.42236C13.5 9.6315 11.7091 11.4224 9.5 11.4224C7.29086 11.4224 5.5 9.6315 5.5 7.42236C5.5 5.21322 7.29086 3.42236 9.5 3.42236C11.7091 3.42236 13.5 5.21322 13.5 7.42236Z" stroke="white" stroke-width="2" stroke-linecap="round" stroke-linejoin="round"/>
</svg>
