<svg width="24" height="25" viewBox="0 0 24 25" fill="none" xmlns="http://www.w3.org/2000/svg">
<path d="M8.37658 16.0898L2.71973 21.7467M11.6943 7.11533L10.1334 8.67621C10.0061 8.80354 9.9424 8.8672 9.86986 8.91778C9.80548 8.96268 9.73604 8.99985 9.66297 9.02851C9.58065 9.0608 9.49236 9.07846 9.3158 9.11377L5.65133 9.84666C4.69903 10.0371 4.22288 10.1324 4.00012 10.3834C3.80605 10.6021 3.71743 10.8948 3.75758 11.1844C3.80367 11.5169 4.14703 11.8602 4.83375 12.547L11.9195 19.6327C12.6062 20.3194 12.9496 20.6628 13.282 20.7089C13.5716 20.749 13.8643 20.6604 14.083 20.4663C14.3341 20.2436 14.4293 19.7674 14.6198 18.8151L15.3527 15.1507C15.388 14.9741 15.4056 14.8858 15.4379 14.8035C15.4666 14.7304 15.5038 14.661 15.5487 14.5966C15.5992 14.5241 15.6629 14.4604 15.7902 14.3331L17.3511 12.7722C17.4325 12.6908 17.4732 12.6501 17.518 12.6145C17.5577 12.583 17.5998 12.5545 17.6439 12.5293C17.6935 12.5009 17.7464 12.4783 17.8522 12.4329L20.3466 11.3639C21.0743 11.052 21.4381 10.8961 21.6034 10.6441C21.7479 10.4238 21.7996 10.1553 21.7473 9.89699C21.6874 9.60164 21.4075 9.32173 20.8477 8.7619L15.7045 3.61877C15.1447 3.05894 14.8648 2.77903 14.5695 2.71916C14.3112 2.6668 14.0427 2.71851 13.8223 2.86304C13.5703 3.02832 13.4144 3.39217 13.1025 4.11987L12.0335 6.61423C11.9882 6.72004 11.9655 6.77295 11.9372 6.82256C11.912 6.86664 11.8835 6.90873 11.8519 6.94847C11.8164 6.99322 11.7757 7.03392 11.6943 7.11533Z" stroke="white" stroke-width="2" stroke-linecap="round" stroke-linejoin="round"/>
</svg>
