<svg width="24" height="25" viewBox="0 0 24 25" fill="none" xmlns="http://www.w3.org/2000/svg">
<path d="M6 6.84619L10.5 11.3462M6 6.84619H3L2 3.84619L3 2.84619L6 3.84619V6.84619ZM19.259 3.5872L16.6314 6.21482C16.2354 6.61084 16.0373 6.80885 15.9632 7.03717C15.8979 7.23802 15.8979 7.45437 15.9632 7.65521C16.0373 7.88354 16.2354 8.08154 16.6314 8.47756L16.8686 8.71482C17.2646 9.11084 17.4627 9.30885 17.691 9.38303C17.8918 9.44829 18.1082 9.44829 18.309 9.38303C18.5373 9.30885 18.7354 9.11084 19.1314 8.71482L21.5893 6.25691C21.854 6.90108 22 7.60659 22 8.34619C22 11.3838 19.5376 13.8462 16.5 13.8462C16.1338 13.8462 15.7759 13.8104 15.4298 13.7421C14.9436 13.6462 14.7005 13.5983 14.5532 13.613C14.3965 13.6286 14.3193 13.6521 14.1805 13.7264C14.0499 13.7962 13.919 13.9272 13.657 14.1892L6.5 21.3462C5.67157 22.1746 4.32843 22.1746 3.5 21.3462C2.67157 20.5178 2.67157 19.1746 3.5 18.3462L10.657 11.1892C10.919 10.9272 11.0499 10.7962 11.1198 10.6657C11.1941 10.5269 11.2176 10.4497 11.2332 10.293C11.2479 10.1456 11.1999 9.90257 11.1041 9.41643C11.0358 9.07025 11 8.7124 11 8.34619C11 5.30863 13.4624 2.84619 16.5 2.84619C17.5055 2.84619 18.448 3.11601 19.259 3.5872ZM12.0001 15.8461L17.5 21.3461C18.3284 22.1745 19.6716 22.1745 20.5 21.3461C21.3284 20.5177 21.3284 19.1745 20.5 18.3461L15.9753 13.8215C15.655 13.7912 15.3427 13.7334 15.0408 13.6505C14.6517 13.5437 14.2249 13.6212 13.9397 13.9065L12.0001 15.8461Z" stroke="white" stroke-width="2" stroke-linecap="round" stroke-linejoin="round"/>
</svg>
