<svg width="24" height="25" viewBox="0 0 24 25" fill="none" xmlns="http://www.w3.org/2000/svg">
<path d="M2.42012 13.034C2.28394 12.8183 2.21584 12.7105 2.17772 12.5442C2.14909 12.4193 2.14909 12.2223 2.17772 12.0974C2.21584 11.9311 2.28394 11.8233 2.42012 11.6076C3.54553 9.82564 6.8954 5.3208 12.0004 5.3208C17.1054 5.3208 20.4553 9.82564 21.5807 11.6076C21.7169 11.8233 21.785 11.9311 21.8231 12.0974C21.8517 12.2223 21.8517 12.4193 21.8231 12.5442C21.785 12.7105 21.7169 12.8183 21.5807 13.034C20.4553 14.816 17.1054 19.3208 12.0004 19.3208C6.8954 19.3208 3.54553 14.816 2.42012 13.034Z" stroke="white" stroke-width="2" stroke-linecap="round" stroke-linejoin="round"/>
<path d="M12.0004 15.3208C13.6573 15.3208 15.0004 13.9777 15.0004 12.3208C15.0004 10.6639 13.6573 9.3208 12.0004 9.3208C10.3435 9.3208 9.0004 10.6639 9.0004 12.3208C9.0004 13.9777 10.3435 15.3208 12.0004 15.3208Z" stroke="white" stroke-width="2" stroke-linecap="round" stroke-linejoin="round"/>
</svg>
