<svg width="511" height="360" viewBox="0 0 511 360" fill="none" xmlns="http://www.w3.org/2000/svg">
<rect x="0.529733" y="0.751901" width="509.343" height="358.601" rx="22.7785" fill="white" stroke="#575757" stroke-width="1.05947"/>
<path d="M78.9211 74.6511C79.5536 70.8132 82.8716 67.9973 86.7613 67.9973H183.414C187.304 67.9973 190.621 70.8132 191.254 74.6511L197.148 110.412C197.945 115.251 194.212 119.65 189.307 119.65H80.8678C75.9635 119.65 72.23 115.251 73.0275 110.412L78.9211 74.6511Z" stroke="#575757" stroke-width="1.05947"/>
<path d="M73.8007 224.193C74.0707 217.665 79.4411 212.512 85.9741 212.512H184.2C190.733 212.512 196.103 217.665 196.374 224.193L198.217 268.756C198.504 275.677 192.97 281.444 186.044 281.444H84.1304C77.2038 281.444 71.6706 275.677 71.9569 268.756L73.8007 224.193Z" stroke="#575757" stroke-width="1.05947"/>
<path d="M87.3168 95.9993C90.0645 86.1534 99.0348 79.3437 109.257 79.3437H160.92C171.142 79.3437 180.112 86.1534 182.86 95.9993L191.724 127.764C192.281 129.757 192.563 131.817 192.563 133.887V182.577V229.552C192.563 232.774 192.208 235.987 191.506 239.132L182.102 281.253C181.508 283.917 179.144 285.811 176.415 285.811H93.7611C91.0321 285.811 88.6687 283.917 88.074 281.253L78.6702 239.132C77.968 235.987 77.6137 232.774 77.6137 229.552V182.577V133.887C77.6137 131.817 77.8958 129.757 78.4521 127.764L87.3168 95.9993Z" fill="white" stroke="#575757" stroke-width="1.05947"/>
<rect x="91.767" y="73.8298" width="86.639" height="179.92" rx="22.7785" fill="white" stroke="#575757" stroke-width="1.05947"/>
<path d="M285.855 75.8072V73.9511C287.604 73.7807 288.823 73.4983 289.513 73.1037C290.204 72.7002 290.72 71.7542 291.06 70.2657H292.97V89.4458H290.388V75.8072H285.855ZM301.955 84.5365C302.116 85.9174 302.757 86.8723 303.878 87.4014C304.452 87.6704 305.116 87.8049 305.869 87.8049C307.304 87.8049 308.366 87.3476 309.057 86.4329C309.747 85.5183 310.092 84.5051 310.092 83.3932C310.092 82.0482 309.68 81.008 308.855 80.2727C308.039 79.5374 307.057 79.1698 305.909 79.1698C305.075 79.1698 304.358 79.3312 303.757 79.654C303.165 79.9768 302.659 80.4252 302.237 80.999L300.139 80.878L301.605 70.5078H311.612V72.8482H303.421L302.601 78.2014C303.049 77.8606 303.475 77.6051 303.878 77.4347C304.596 77.1388 305.425 76.9909 306.367 76.9909C308.133 76.9909 309.631 77.5603 310.859 78.699C312.087 79.8378 312.702 81.2815 312.702 83.03C312.702 84.8503 312.137 86.4554 311.007 87.8452C309.886 89.2351 308.093 89.93 305.627 89.93C304.058 89.93 302.668 89.4906 301.457 88.6119C300.256 87.7242 299.583 86.3657 299.44 84.5365H301.955ZM316.939 75.2289H319.75V78.161H316.939V75.2289ZM316.939 86.5136H319.75V89.4458H316.939V86.5136ZM328.708 89.9704C326.43 89.9704 324.776 89.3472 323.744 88.1008C322.722 86.8454 322.211 85.3211 322.211 83.5277H324.74C324.847 84.7741 325.08 85.6797 325.439 86.2446C326.067 87.2579 327.201 87.7645 328.842 87.7645C330.115 87.7645 331.138 87.4238 331.909 86.7423C332.68 86.0608 333.065 85.1821 333.065 84.1061C333.065 82.779 332.657 81.8509 331.841 81.3218C331.034 80.7928 329.909 80.5283 328.465 80.5283C328.304 80.5283 328.138 80.5328 327.968 80.5417C327.806 80.5417 327.64 80.5462 327.47 80.5552V78.4166C327.721 78.4435 327.932 78.4614 328.102 78.4704C328.273 78.4794 328.456 78.4838 328.654 78.4838C329.559 78.4838 330.304 78.3404 330.886 78.0534C331.909 77.5513 332.42 76.6546 332.42 75.3634C332.42 74.4039 332.079 73.6642 331.398 73.1441C330.716 72.624 329.923 72.364 329.017 72.364C327.403 72.364 326.286 72.902 325.668 73.978C325.327 74.5698 325.134 75.4127 325.089 76.5067H322.695C322.695 75.072 322.982 73.8525 323.556 72.8482C324.542 71.0548 326.277 70.1581 328.761 70.1581C330.725 70.1581 332.245 70.5975 333.321 71.4763C334.397 72.346 334.935 73.6104 334.935 75.2692C334.935 76.4529 334.617 77.4123 333.98 78.1476C333.585 78.6049 333.074 78.9636 332.447 79.2236C333.46 79.5016 334.249 80.0396 334.814 80.8376C335.388 81.6267 335.675 82.5951 335.675 83.7429C335.675 85.5811 335.069 87.0786 333.859 88.2353C332.648 89.392 330.931 89.9704 328.708 89.9704ZM337.746 89.4458C337.836 87.7869 338.176 86.3433 338.768 85.1148C339.369 83.8864 340.535 82.77 342.265 81.7657L344.848 80.2727C346.005 79.6002 346.816 79.0263 347.282 78.5511C348.018 77.8068 348.385 76.955 348.385 75.9955C348.385 74.8747 348.049 73.987 347.376 73.3324C346.704 72.6689 345.807 72.3371 344.686 72.3371C343.028 72.3371 341.88 72.9648 341.243 74.2201C340.902 74.8926 340.714 75.8252 340.678 77.0178H338.217C338.244 75.341 338.553 73.9735 339.145 72.9154C340.194 71.0503 342.046 70.1178 344.7 70.1178C346.906 70.1178 348.515 70.7141 349.528 71.9067C350.551 73.0993 351.062 74.4264 351.062 75.8879C351.062 77.4302 350.519 78.7484 349.434 79.8423C348.807 80.479 347.681 81.2501 346.058 82.1558L344.216 83.178C343.337 83.6622 342.646 84.124 342.144 84.5634C341.248 85.3435 340.683 86.2088 340.45 87.1593H350.968V89.4458H337.746Z" fill="black"/>
<path d="M108.057 52.5979C108.282 52.5979 108.465 52.5731 108.606 52.5234C108.873 52.4282 109.006 52.2513 109.006 51.9926C109.006 51.8416 108.94 51.7247 108.808 51.6419C108.675 51.5612 108.467 51.4898 108.184 51.4277L107.7 51.3191C107.224 51.2115 106.895 51.0946 106.713 50.9684C106.404 50.7573 106.25 50.4272 106.25 49.9782C106.25 49.5685 106.399 49.2281 106.697 48.957C106.995 48.6859 107.433 48.5504 108.01 48.5504C108.492 48.5504 108.903 48.6787 109.242 48.9353C109.584 49.1898 109.763 49.5602 109.779 50.0465H108.86C108.844 49.7713 108.724 49.5757 108.5 49.4599C108.351 49.3833 108.166 49.345 107.945 49.345C107.699 49.345 107.502 49.3947 107.355 49.494C107.208 49.5933 107.135 49.732 107.135 49.9099C107.135 50.0734 107.207 50.1955 107.352 50.2762C107.445 50.33 107.644 50.3931 107.948 50.4655L108.736 50.6549C109.082 50.7376 109.343 50.8483 109.519 50.987C109.792 51.2022 109.928 51.5136 109.928 51.9213C109.928 52.3392 109.768 52.6869 109.447 52.9642C109.128 53.2394 108.677 53.377 108.094 53.377C107.498 53.377 107.029 53.2414 106.688 52.9704C106.346 52.6972 106.176 52.3227 106.176 51.8468H107.088C107.117 52.0558 107.174 52.212 107.259 52.3154C107.414 52.5037 107.68 52.5979 108.057 52.5979ZM112.66 53.3863C112.006 53.3863 111.506 53.2083 111.16 52.8524C110.697 52.4158 110.465 51.7867 110.465 50.9652C110.465 50.1272 110.697 49.4981 111.16 49.0781C111.506 48.7222 112.006 48.5442 112.66 48.5442C113.314 48.5442 113.813 48.7222 114.159 49.0781C114.62 49.4981 114.851 50.1272 114.851 50.9652C114.851 51.7867 114.62 52.4158 114.159 52.8524C113.813 53.2083 113.314 53.3863 112.66 53.3863ZM113.563 52.1571C113.784 51.8778 113.895 51.4805 113.895 50.9652C113.895 50.4521 113.783 50.0558 113.56 49.7765C113.338 49.495 113.038 49.3543 112.66 49.3543C112.281 49.3543 111.979 49.494 111.753 49.7733C111.528 50.0527 111.415 50.45 111.415 50.9652C111.415 51.4805 111.528 51.8778 111.753 52.1571C111.979 52.4365 112.281 52.5762 112.66 52.5762C113.038 52.5762 113.339 52.4365 113.563 52.1571ZM115.584 48.6839H116.54V52.4365H118.805V53.259H115.584V48.6839ZM122.148 52.3186H120.463L120.146 53.259H119.147L120.779 48.6839H121.86L123.48 53.259H122.443L122.148 52.3186ZM121.881 51.5302L121.31 49.7299L120.72 51.5302H121.881ZM126.006 51.465H125.019V53.259H124.085V48.6839H126.329C126.65 48.6901 126.896 48.7294 127.068 48.8018C127.242 48.8743 127.389 48.9808 127.509 49.1215C127.608 49.2374 127.687 49.3657 127.745 49.5064C127.803 49.6471 127.832 49.8075 127.832 49.9875C127.832 50.2048 127.777 50.419 127.667 50.63C127.557 50.839 127.376 50.987 127.124 51.0739C127.335 51.1587 127.484 51.2798 127.571 51.437C127.66 51.5922 127.704 51.8302 127.704 52.1509V52.4582C127.704 52.6672 127.713 52.809 127.729 52.8835C127.754 53.0014 127.812 53.0883 127.903 53.1442V53.259H126.851C126.822 53.1576 126.801 53.0759 126.789 53.0138C126.764 52.8855 126.75 52.7541 126.748 52.6196L126.742 52.1944C126.738 51.9026 126.684 51.7081 126.581 51.6109C126.479 51.5136 126.288 51.465 126.006 51.465ZM126.587 50.6331C126.777 50.5462 126.872 50.3745 126.872 50.1179C126.872 49.8406 126.78 49.6544 126.596 49.5592C126.493 49.5054 126.338 49.4785 126.131 49.4785H125.019V50.7076H126.103C126.318 50.7076 126.479 50.6828 126.587 50.6331ZM133.654 52.9176C133.313 53.2301 132.876 53.3863 132.345 53.3863C131.687 53.3863 131.169 53.1752 130.793 52.7531C130.416 52.3289 130.228 51.7474 130.228 51.0087C130.228 50.21 130.442 49.5944 130.87 49.1619C131.243 48.7853 131.717 48.597 132.292 48.597C133.062 48.597 133.624 48.8494 133.98 49.3543C134.177 49.6378 134.282 49.9223 134.297 50.2079H133.341C133.279 49.9886 133.199 49.823 133.102 49.7113C132.928 49.5126 132.671 49.4133 132.329 49.4133C131.981 49.4133 131.707 49.554 131.507 49.8354C131.306 50.1148 131.205 50.511 131.205 51.0242C131.205 51.5374 131.311 51.9223 131.522 52.1789C131.735 52.4334 132.005 52.5607 132.332 52.5607C132.667 52.5607 132.923 52.451 133.099 52.2316C133.196 52.1137 133.277 51.9368 133.341 51.7009H134.288C134.205 52.1996 133.994 52.6051 133.654 52.9176ZM137.749 53.259V51.2167H135.961V53.259H135.014V48.6839H135.961V50.4283H137.749V48.6839H138.698V53.259H137.749ZM142.293 52.3186H140.607L140.291 53.259H139.291L140.924 48.6839H142.004L143.624 53.259H142.588L142.293 52.3186ZM142.026 51.5302L141.455 49.7299L140.865 51.5302H142.026ZM146.151 51.465H145.164V53.259H144.229V48.6839H146.474C146.794 48.6901 147.041 48.7294 147.212 48.8018C147.386 48.8743 147.533 48.9808 147.653 49.1215C147.752 49.2374 147.831 49.3657 147.889 49.5064C147.947 49.6471 147.976 49.8075 147.976 49.9875C147.976 50.2048 147.921 50.419 147.811 50.63C147.702 50.839 147.521 50.987 147.268 51.0739C147.479 51.1587 147.628 51.2798 147.715 51.437C147.804 51.5922 147.849 51.8302 147.849 52.1509V52.4582C147.849 52.6672 147.857 52.809 147.873 52.8835C147.898 53.0014 147.956 53.0883 148.047 53.1442V53.259H146.995C146.966 53.1576 146.945 53.0759 146.933 53.0138C146.908 52.8855 146.895 52.7541 146.893 52.6196L146.886 52.1944C146.882 51.9026 146.828 51.7081 146.725 51.6109C146.624 51.5136 146.432 51.465 146.151 51.465ZM146.731 50.6331C146.922 50.5462 147.017 50.3745 147.017 50.1179C147.017 49.8406 146.925 49.6544 146.741 49.5592C146.637 49.5054 146.482 49.4785 146.275 49.4785H145.164V50.7076H146.247C146.462 50.7076 146.624 50.6828 146.731 50.6331ZM151.607 53.1473C151.355 53.3025 151.045 53.3801 150.676 53.3801C150.07 53.3801 149.573 53.1701 149.186 52.75C148.783 52.3279 148.581 51.7505 148.581 51.018C148.581 50.2772 148.785 49.6833 149.193 49.2364C149.6 48.7894 150.139 48.5659 150.81 48.5659C151.391 48.5659 151.858 48.7139 152.21 49.0098C152.563 49.3036 152.766 49.6709 152.818 50.1117H151.877C151.805 49.7992 151.628 49.5809 151.347 49.4568C151.189 49.3885 151.015 49.3543 150.822 49.3543C150.454 49.3543 150.151 49.494 149.913 49.7733C149.677 50.0506 149.559 50.4686 149.559 51.0273C149.559 51.5902 149.687 51.9885 149.944 52.2223C150.2 52.4562 150.492 52.5731 150.819 52.5731C151.14 52.5731 151.403 52.481 151.607 52.2968C151.812 52.1106 151.939 51.8674 151.986 51.5674H150.928V50.8038H152.833V53.259H152.2L152.104 52.6879C151.92 52.9052 151.754 53.0583 151.607 53.1473ZM153.675 48.6839H154.624V53.259H153.675V48.6839ZM159.218 53.259H158.262L156.394 50.0092V53.259H155.503V48.6839H156.505L158.327 51.8778V48.6839H159.218V53.259ZM162.918 53.1473C162.666 53.3025 162.355 53.3801 161.987 53.3801C161.381 53.3801 160.884 53.1701 160.497 52.75C160.094 52.3279 159.892 51.7505 159.892 51.018C159.892 50.2772 160.096 49.6833 160.503 49.2364C160.911 48.7894 161.45 48.5659 162.12 48.5659C162.702 48.5659 163.168 48.7139 163.52 49.0098C163.874 49.3036 164.077 49.6709 164.129 50.1117H163.188C163.116 49.7992 162.939 49.5809 162.657 49.4568C162.5 49.3885 162.325 49.3543 162.133 49.3543C161.764 49.3543 161.461 49.494 161.223 49.7733C160.987 50.0506 160.869 50.4686 160.869 51.0273C160.869 51.5902 160.998 51.9885 161.254 52.2223C161.511 52.4562 161.803 52.5731 162.13 52.5731C162.45 52.5731 162.713 52.481 162.918 52.2968C163.123 52.1106 163.249 51.8674 163.297 51.5674H162.238V50.8038H164.144V53.259H163.511L163.415 52.6879C163.231 52.9052 163.065 53.0583 162.918 53.1473Z" fill="#575757"/>
<path d="M456.693 32.2222H455.786V29.1183H454.728V28.5161C455.007 28.5037 455.203 28.4851 455.315 28.4602C455.492 28.4209 455.637 28.3423 455.749 28.2243C455.826 28.1436 455.884 28.036 455.923 27.9015C455.946 27.8208 455.957 27.7608 455.957 27.7215H456.693V32.2222ZM459.042 28.6185C458.943 28.751 458.895 28.9279 458.9 29.1493H458.074C458.082 28.9258 458.12 28.7137 458.189 28.513C458.261 28.3371 458.375 28.1747 458.53 28.0257C458.646 27.9202 458.784 27.8395 458.943 27.7836C459.102 27.7277 459.298 27.6998 459.53 27.6998C459.96 27.6998 460.307 27.8115 460.569 28.035C460.834 28.2564 460.967 28.5544 460.967 28.9289C460.967 29.1938 460.888 29.4173 460.731 29.5994C460.632 29.7132 460.528 29.7908 460.42 29.8322C460.501 29.8322 460.617 29.9015 460.768 30.0401C460.994 30.2491 461.106 30.5347 461.106 30.8968C461.106 31.2775 460.974 31.6128 460.709 31.9025C460.446 32.1901 460.056 32.3339 459.539 32.3339C458.902 32.3339 458.459 32.1259 458.21 31.71C458.08 31.4886 458.008 31.1989 457.993 30.8409H458.862C458.862 31.021 458.891 31.1699 458.949 31.2879C459.057 31.5052 459.252 31.6138 459.536 31.6138C459.71 31.6138 459.861 31.5548 459.989 31.4369C460.119 31.3169 460.185 31.1451 460.185 30.9216C460.185 30.6257 460.065 30.4281 459.824 30.3288C459.688 30.2729 459.473 30.245 459.179 30.245V29.6118C459.467 29.6076 459.667 29.5797 459.781 29.528C459.978 29.4411 460.076 29.2652 460.076 29.0003C460.076 28.8286 460.025 28.6889 459.924 28.5813C459.824 28.4737 459.684 28.4199 459.502 28.4199C459.293 28.4199 459.14 28.4861 459.042 28.6185ZM463.366 27.9853C463.563 28.184 463.661 28.4199 463.661 28.693C463.661 28.9662 463.562 29.2021 463.363 29.4007C463.166 29.5973 462.932 29.6956 462.658 29.6956C462.385 29.6956 462.149 29.5973 461.951 29.4007C461.754 29.2021 461.656 28.9662 461.656 28.693C461.656 28.4199 461.754 28.185 461.951 27.9884C462.149 27.7898 462.385 27.6905 462.658 27.6905C462.932 27.6905 463.167 27.7888 463.366 27.9853ZM463.012 29.0469C463.109 28.9496 463.158 28.8317 463.158 28.693C463.158 28.5544 463.109 28.4364 463.012 28.3392C462.915 28.2419 462.797 28.1933 462.658 28.1933C462.52 28.1933 462.402 28.2419 462.305 28.3392C462.207 28.4364 462.159 28.5544 462.159 28.693C462.159 28.8317 462.207 28.9496 462.305 29.0469C462.402 29.1441 462.52 29.1928 462.658 29.1928C462.797 29.1928 462.915 29.1441 463.012 29.0469ZM467.622 31.8807C467.28 32.1932 466.843 32.3494 466.312 32.3494C465.654 32.3494 465.136 32.1384 464.76 31.7162C464.383 31.292 464.195 30.7106 464.195 29.9718C464.195 29.1731 464.409 28.5575 464.837 28.125C465.21 27.7484 465.684 27.5601 466.259 27.5601C467.029 27.5601 467.592 27.8126 467.947 28.3175C468.144 28.6009 468.25 28.8855 468.264 29.171H467.308C467.246 28.9517 467.166 28.7861 467.069 28.6744C466.895 28.4758 466.638 28.3764 466.296 28.3764C465.949 28.3764 465.674 28.5171 465.474 28.7986C465.273 29.0779 465.173 29.4742 465.173 29.9874C465.173 30.5005 465.278 30.8854 465.489 31.142C465.702 31.3965 465.972 31.5238 466.299 31.5238C466.634 31.5238 466.89 31.4141 467.066 31.1948C467.163 31.0768 467.244 30.8999 467.308 30.664H468.255C468.172 31.1627 467.961 31.5683 467.622 31.8807Z" fill="#575757"/>
<rect x="13.1625" y="9.65437" width="484.075" height="340.796" rx="20.6596" stroke="#E6772F" stroke-width="1.05947"/>
<path d="M59.995 44.3636C59.995 48.8053 56.1488 52.4622 51.3327 52.4622C46.5165 52.4622 42.6704 48.8053 42.6704 44.3636C42.6704 39.9219 46.5165 36.265 51.3327 36.265C56.1488 36.265 59.995 39.9219 59.995 44.3636Z" stroke="black" stroke-width="1.05947"/>
<path d="M59.995 310.199C59.995 314.64 56.1488 318.297 51.3327 318.297C46.5165 318.297 42.6704 314.64 42.6704 310.199C42.6704 305.757 46.5165 302.1 51.3327 302.1C56.1488 302.1 59.995 305.757 59.995 310.199Z" stroke="black" stroke-width="1.05947"/>
<path d="M346.875 264.112C346.875 265.606 345.785 267.069 343.781 268.188C341.795 269.298 339.015 270.001 335.916 270.001C332.817 270.001 330.037 269.298 328.051 268.188C326.047 267.069 324.957 265.606 324.957 264.112C324.957 262.617 326.047 261.155 328.051 260.035C330.037 258.926 332.817 258.222 335.916 258.222C339.015 258.222 341.795 258.926 343.781 260.035C345.785 261.155 346.875 262.617 346.875 264.112Z" stroke="url(#paint0_radial_45_545)" stroke-width="1.05947"/>
<path d="M352.988 264.112C352.988 266.549 351.214 268.866 348.104 270.603C345.012 272.331 340.704 273.416 335.917 273.416C331.129 273.416 326.821 272.331 323.729 270.603C320.619 268.866 318.845 266.549 318.845 264.112C318.845 261.674 320.619 259.358 323.729 257.62C326.821 255.892 331.129 254.807 335.917 254.807C340.704 254.807 345.012 255.892 348.104 257.62C351.214 259.358 352.988 261.674 352.988 264.112Z" stroke="url(#paint1_radial_45_545)" stroke-width="1.05947"/>
<path d="M359.327 264.112C359.327 267.527 356.843 270.73 352.586 273.108C348.347 275.477 342.454 276.959 335.915 276.959C329.377 276.959 323.484 275.477 319.244 273.108C314.987 270.73 312.503 267.527 312.503 264.112C312.503 260.696 314.987 257.494 319.244 255.115C323.484 252.746 329.377 251.264 335.915 251.264C342.454 251.264 348.347 252.746 352.586 255.115C356.843 257.494 359.327 260.696 359.327 264.112Z" stroke="url(#paint2_radial_45_545)" stroke-width="1.05947"/>
<path d="M367.684 264.112C367.684 268.817 364.265 273.186 358.495 276.41C352.743 279.624 344.761 281.628 335.915 281.628C327.069 281.628 319.087 279.624 313.335 276.41C307.565 273.186 304.146 268.817 304.146 264.112C304.146 259.407 307.565 255.037 313.335 251.814C319.087 248.6 327.069 246.595 335.915 246.595C344.761 246.595 352.743 248.6 358.495 251.814C364.265 255.037 367.684 259.407 367.684 264.112Z" stroke="url(#paint3_radial_45_545)" stroke-width="1.05947"/>
<path d="M335.914 259.514L329.066 240.954L342.761 240.954L335.914 259.514Z" fill="black"/>
<rect x="128.475" y="156.837" width="13.2228" height="37.3702" rx="3.70813" stroke="#E6772F" stroke-width="1.05947"/>
<rect opacity="0.8" x="123.796" y="152.596" width="22.5803" height="45.8513" rx="5.82706" stroke="#DA9569" stroke-width="1.05947"/>
<rect opacity="0.6" x="118.478" y="148.229" width="33.216" height="54.5858" rx="5.82706" stroke="#BD8B6B" stroke-width="1.05947"/>
<rect opacity="0.5" x="113.383" y="142.406" width="43.4077" height="66.2318" rx="7.946" stroke="#C29C83" stroke-width="1.05947"/>
<rect opacity="0.4" x="108.953" y="137.207" width="52.2675" height="76.6301" rx="10.0649" stroke="#ABA39D" stroke-width="1.05947"/>
<rect opacity="0.2" x="103.857" y="130.76" width="62.4592" height="89.524" rx="12.1839" stroke="#949494" stroke-width="1.05947"/>
<path d="M129.117 96.3623C129.597 93.4387 132.124 91.293 135.086 91.293C138.049 91.293 140.576 93.4387 141.056 96.3623L142.439 104.786C143.183 109.322 139.683 113.444 135.086 113.444C130.489 113.444 126.989 109.322 127.734 104.786L129.117 96.3623Z" stroke="#575757" stroke-width="1.05947"/>
<path d="M94.3207 278.915C94.3207 276.867 95.9809 275.207 98.0289 275.207H172.149C174.197 275.207 175.857 276.867 175.857 278.915V279.854C175.857 280.732 175.145 281.443 174.268 281.443H95.91C95.0323 281.443 94.3207 280.732 94.3207 279.854V278.915Z" stroke="#575757" stroke-width="1.05947"/>
<path d="M308.968 217.358H308.012L306.144 214.108V217.358H305.253V212.783H306.255L308.077 215.977V212.783H308.968V217.358ZM313.553 217.358H312.646V214.254H311.588V213.652C311.867 213.64 312.063 213.621 312.175 213.596C312.353 213.557 312.497 213.478 312.609 213.36C312.686 213.28 312.744 213.172 312.783 213.038C312.806 212.957 312.817 212.897 312.817 212.858H313.553V217.358ZM315.902 213.755C315.803 213.887 315.755 214.064 315.76 214.285H314.934C314.942 214.062 314.981 213.85 315.049 213.649C315.121 213.473 315.235 213.311 315.39 213.162C315.506 213.056 315.644 212.976 315.803 212.92C315.962 212.864 316.158 212.836 316.39 212.836C316.82 212.836 317.167 212.948 317.429 213.171C317.694 213.393 317.827 213.69 317.827 214.065C317.827 214.33 317.748 214.553 317.591 214.735C317.492 214.849 317.388 214.927 317.28 214.968C317.361 214.968 317.477 215.038 317.628 215.176C317.854 215.385 317.966 215.671 317.966 216.033C317.966 216.414 317.834 216.749 317.569 217.039C317.306 217.326 316.916 217.47 316.399 217.47C315.762 217.47 315.319 217.262 315.071 216.846C314.94 216.625 314.868 216.335 314.853 215.977H315.722C315.722 216.157 315.751 216.306 315.809 216.424C315.917 216.641 316.112 216.75 316.396 216.75C316.57 216.75 316.721 216.691 316.849 216.573C316.979 216.453 317.045 216.281 317.045 216.058C317.045 215.762 316.925 215.564 316.685 215.465C316.548 215.409 316.333 215.381 316.039 215.381V214.748C316.327 214.744 316.527 214.716 316.641 214.664C316.838 214.577 316.936 214.401 316.936 214.136C316.936 213.965 316.885 213.825 316.784 213.717C316.685 213.61 316.544 213.556 316.362 213.556C316.153 213.556 316 213.622 315.902 213.755ZM318.621 216.433H319.562V217.358H318.621V216.433ZM321.645 217.489C321.307 217.489 321.004 217.389 320.735 217.191C320.466 216.99 320.312 216.698 320.273 216.315H321.154C321.175 216.448 321.231 216.555 321.322 216.638C321.413 216.721 321.534 216.762 321.685 216.762C321.977 216.762 322.182 216.601 322.3 216.278C322.364 216.1 322.404 215.84 322.421 215.499C322.34 215.6 322.254 215.678 322.163 215.732C321.997 215.831 321.794 215.881 321.551 215.881C321.193 215.881 320.876 215.758 320.599 215.511C320.321 215.263 320.183 214.906 320.183 214.441C320.183 213.958 320.321 213.568 320.599 213.27C320.878 212.97 321.24 212.82 321.685 212.82C322.37 212.82 322.84 213.124 323.094 213.73C323.239 214.073 323.311 214.525 323.311 215.086C323.311 215.63 323.242 216.085 323.103 216.449C322.839 217.142 322.352 217.489 321.645 217.489ZM321.334 213.686C321.165 213.819 321.08 214.043 321.08 214.36C321.08 214.627 321.133 214.828 321.241 214.962C321.351 215.094 321.518 215.161 321.744 215.161C321.866 215.161 321.981 215.126 322.088 215.055C322.289 214.927 322.39 214.704 322.39 214.388C322.39 214.133 322.33 213.932 322.209 213.783C322.092 213.634 321.929 213.559 321.722 213.559C321.571 213.559 321.442 213.602 321.334 213.686ZM324.087 217.076C323.829 216.811 323.699 216.489 323.699 216.111C323.699 215.858 323.756 215.629 323.87 215.425C323.986 215.22 324.155 215.066 324.376 214.962C324.159 214.817 324.017 214.661 323.951 214.493C323.887 214.324 323.855 214.165 323.855 214.018C323.855 213.692 323.978 213.413 324.224 213.184C324.47 212.952 324.818 212.836 325.267 212.836C325.716 212.836 326.064 212.952 326.31 213.184C326.556 213.413 326.679 213.692 326.679 214.018C326.679 214.165 326.646 214.324 326.58 214.493C326.516 214.661 326.375 214.807 326.158 214.931C326.379 215.055 326.546 215.22 326.657 215.425C326.769 215.629 326.825 215.858 326.825 216.111C326.825 216.489 326.684 216.812 326.403 217.079C326.124 217.344 325.732 217.476 325.23 217.476C324.727 217.476 324.346 217.343 324.087 217.076ZM324.618 216.052C324.618 216.273 324.675 216.445 324.789 216.567C324.905 216.689 325.064 216.75 325.267 216.75C325.47 216.75 325.628 216.689 325.742 216.567C325.858 216.445 325.916 216.273 325.916 216.052C325.916 215.822 325.857 215.648 325.739 215.53C325.623 215.41 325.465 215.35 325.267 215.35C325.068 215.35 324.91 215.41 324.792 215.53C324.676 215.648 324.618 215.822 324.618 216.052ZM324.851 214.518C324.95 214.622 325.089 214.673 325.267 214.673C325.447 214.673 325.586 214.622 325.683 214.518C325.782 214.415 325.832 214.281 325.832 214.118C325.832 213.94 325.782 213.801 325.683 213.702C325.586 213.6 325.447 213.55 325.267 213.55C325.089 213.55 324.949 213.6 324.848 213.702C324.748 213.801 324.699 213.94 324.699 214.118C324.699 214.281 324.75 214.415 324.851 214.518ZM332.164 215.698V216.39H331.655V217.358H330.789V216.39H329.007V215.617L330.661 212.886H331.655V215.698H332.164ZM329.662 215.698H330.789V213.755L329.662 215.698ZM334.321 214.438C334.72 214.438 335.047 214.573 335.302 214.844C335.558 215.115 335.687 215.462 335.687 215.884C335.687 216.304 335.561 216.674 335.311 216.995C335.061 217.316 334.672 217.476 334.144 217.476C333.577 217.476 333.159 217.239 332.89 216.765C332.681 216.395 332.577 215.917 332.577 215.331C332.577 214.988 332.591 214.709 332.62 214.493C332.672 214.111 332.772 213.792 332.921 213.537C333.049 213.32 333.217 213.145 333.424 213.013C333.633 212.88 333.882 212.814 334.172 212.814C334.59 212.814 334.923 212.922 335.171 213.137C335.42 213.35 335.559 213.635 335.59 213.991H334.709C334.709 213.918 334.681 213.838 334.625 213.752C334.53 213.611 334.386 213.54 334.194 213.54C333.906 213.54 333.701 213.702 333.579 214.025C333.513 214.203 333.467 214.465 333.443 214.813C333.552 214.683 333.679 214.588 333.824 214.528C333.969 214.468 334.135 214.438 334.321 214.438ZM333.725 215.282C333.551 215.416 333.464 215.634 333.464 215.934C333.464 216.176 333.529 216.373 333.66 216.526C333.79 216.68 333.956 216.756 334.156 216.756C334.353 216.756 334.507 216.683 334.619 216.536C334.733 216.387 334.79 216.194 334.79 215.958C334.79 215.696 334.725 215.495 334.597 215.356C334.469 215.216 334.312 215.145 334.125 215.145C333.974 215.145 333.841 215.191 333.725 215.282ZM337.211 213.454C337.211 213.766 337.134 214.012 336.981 214.192C336.83 214.372 336.617 214.489 336.342 214.543V214.217C336.544 214.153 336.684 214.044 336.761 213.891C336.802 213.8 336.82 213.708 336.813 213.615H336.326V212.799H337.211V213.454ZM340.324 213.755C340.225 213.887 340.177 214.064 340.181 214.285H339.355C339.364 214.062 339.402 213.85 339.47 213.649C339.543 213.473 339.657 213.311 339.812 213.162C339.928 213.056 340.065 212.976 340.225 212.92C340.384 212.864 340.579 212.836 340.811 212.836C341.242 212.836 341.588 212.948 341.851 213.171C342.116 213.393 342.248 213.69 342.248 214.065C342.248 214.33 342.17 214.553 342.012 214.735C341.913 214.849 341.81 214.927 341.702 214.968C341.783 214.968 341.899 215.038 342.05 215.176C342.275 215.385 342.388 215.671 342.388 216.033C342.388 216.414 342.256 216.749 341.991 217.039C341.728 217.326 341.338 217.47 340.821 217.47C340.183 217.47 339.74 217.262 339.492 216.846C339.362 216.625 339.289 216.335 339.275 215.977H340.144C340.144 216.157 340.173 216.306 340.231 216.424C340.338 216.641 340.534 216.75 340.817 216.75C340.991 216.75 341.142 216.691 341.271 216.573C341.401 216.453 341.466 216.281 341.466 216.058C341.466 215.762 341.346 215.564 341.106 215.465C340.969 215.409 340.754 215.381 340.46 215.381V214.748C340.748 214.744 340.949 214.716 341.063 214.664C341.259 214.577 341.357 214.401 341.357 214.136C341.357 213.965 341.307 213.825 341.205 213.717C341.106 213.61 340.965 213.556 340.783 213.556C340.574 213.556 340.421 213.622 340.324 213.755ZM345.445 214.304C345.209 214.639 345.012 214.985 344.852 215.341C344.726 215.62 344.612 215.962 344.511 216.365C344.41 216.769 344.359 217.1 344.359 217.358H343.44C343.467 216.551 343.732 215.712 344.235 214.841C344.56 214.301 344.832 213.924 345.051 213.711H342.807L342.819 212.917H345.998V213.609C345.865 213.739 345.681 213.971 345.445 214.304ZM347.478 213.454C347.478 213.766 347.402 214.012 347.249 214.192C347.098 214.372 346.885 214.489 346.609 214.543V214.217C346.812 214.153 346.952 214.044 347.028 213.891C347.07 213.8 347.087 213.708 347.081 213.615H346.594V212.799H347.478V213.454ZM349.012 213.454C349.012 213.766 348.935 214.012 348.782 214.192C348.631 214.372 348.418 214.489 348.143 214.543V214.217C348.345 214.153 348.485 214.044 348.562 213.891C348.603 213.8 348.621 213.708 348.614 213.615H348.127V212.799H349.012V213.454Z" fill="black"/>
<path d="M317.611 224.634H318.583L317.295 229.209H316.382L315.83 226.533L315.668 225.649L315.507 226.533L314.954 229.209H314.067L312.769 224.634H313.784L314.389 227.254L314.52 227.983L314.653 227.269L315.169 224.634H316.177L316.721 227.254L316.86 227.983L317 227.281L317.611 224.634ZM322.854 229.209H321.947V226.105H320.889V225.503C321.168 225.491 321.364 225.472 321.476 225.447C321.654 225.408 321.798 225.329 321.91 225.211C321.987 225.13 322.045 225.023 322.084 224.888C322.107 224.808 322.118 224.748 322.118 224.708H322.854V229.209ZM325.203 225.605C325.104 225.738 325.057 225.915 325.061 226.136H324.235C324.243 225.913 324.282 225.701 324.35 225.5C324.422 225.324 324.536 225.161 324.691 225.013C324.807 224.907 324.945 224.826 325.104 224.77C325.263 224.715 325.459 224.687 325.691 224.687C326.121 224.687 326.468 224.798 326.731 225.022C326.995 225.243 327.128 225.541 327.128 225.916C327.128 226.181 327.049 226.404 326.892 226.586C326.793 226.7 326.689 226.778 326.582 226.819C326.662 226.819 326.778 226.888 326.929 227.027C327.155 227.236 327.268 227.521 327.268 227.884C327.268 228.264 327.135 228.6 326.87 228.889C326.607 229.177 326.217 229.321 325.7 229.321C325.063 229.321 324.62 229.113 324.372 228.697C324.241 228.475 324.169 228.186 324.154 227.828H325.023C325.023 228.008 325.052 228.157 325.11 228.275C325.218 228.492 325.414 228.601 325.697 228.601C325.871 228.601 326.022 228.542 326.15 228.424C326.281 228.304 326.346 228.132 326.346 227.908C326.346 227.613 326.226 227.415 325.986 227.316C325.849 227.26 325.634 227.232 325.34 227.232V226.599C325.628 226.594 325.828 226.567 325.942 226.515C326.139 226.428 326.237 226.252 326.237 225.987C326.237 225.815 326.186 225.676 326.085 225.568C325.986 225.461 325.845 225.407 325.663 225.407C325.454 225.407 325.301 225.473 325.203 225.605ZM327.923 228.284H328.863V229.209H327.923V228.284ZM330.946 229.339C330.608 229.339 330.305 229.24 330.036 229.041C329.767 228.841 329.613 228.549 329.574 228.166H330.455C330.476 228.299 330.532 228.406 330.623 228.489C330.714 228.572 330.835 228.613 330.986 228.613C331.278 228.613 331.483 228.452 331.601 228.129C331.665 227.951 331.705 227.691 331.722 227.35C331.641 227.451 331.555 227.529 331.464 227.583C331.299 227.682 331.095 227.732 330.853 227.732C330.495 227.732 330.177 227.608 329.9 227.362C329.622 227.114 329.484 226.757 329.484 226.291C329.484 225.809 329.622 225.419 329.9 225.121C330.179 224.821 330.541 224.671 330.986 224.671C331.671 224.671 332.141 224.974 332.395 225.581C332.54 225.924 332.613 226.376 332.613 226.937C332.613 227.481 332.543 227.935 332.405 228.3C332.14 228.993 331.653 229.339 330.946 229.339ZM330.635 225.537C330.466 225.669 330.381 225.894 330.381 226.211C330.381 226.478 330.435 226.678 330.542 226.813C330.652 226.945 330.819 227.011 331.045 227.011C331.167 227.011 331.282 226.976 331.39 226.906C331.59 226.778 331.691 226.555 331.691 226.239C331.691 225.984 331.631 225.782 331.511 225.633C331.393 225.484 331.23 225.41 331.023 225.41C330.872 225.41 330.743 225.452 330.635 225.537ZM333.388 228.927C333.13 228.662 333 228.34 333 227.961C333 227.709 333.057 227.48 333.171 227.275C333.287 227.07 333.456 226.916 333.677 226.813C333.46 226.668 333.318 226.512 333.252 226.344C333.188 226.174 333.156 226.016 333.156 225.869C333.156 225.542 333.279 225.264 333.525 225.034C333.771 224.802 334.119 224.687 334.568 224.687C335.017 224.687 335.365 224.802 335.611 225.034C335.857 225.264 335.98 225.542 335.98 225.869C335.98 226.016 335.947 226.174 335.881 226.344C335.817 226.512 335.676 226.658 335.459 226.782C335.68 226.906 335.847 227.07 335.959 227.275C336.07 227.48 336.126 227.709 336.126 227.961C336.126 228.34 335.985 228.663 335.704 228.93C335.425 229.194 335.034 229.327 334.531 229.327C334.028 229.327 333.647 229.193 333.388 228.927ZM333.919 227.902C333.919 228.124 333.976 228.295 334.09 228.417C334.206 228.54 334.365 228.601 334.568 228.601C334.771 228.601 334.929 228.54 335.043 228.417C335.159 228.295 335.217 228.124 335.217 227.902C335.217 227.673 335.158 227.499 335.04 227.381C334.924 227.261 334.767 227.201 334.568 227.201C334.369 227.201 334.211 227.261 334.093 227.381C333.977 227.499 333.919 227.673 333.919 227.902ZM334.152 226.369C334.251 226.472 334.39 226.524 334.568 226.524C334.748 226.524 334.887 226.472 334.984 226.369C335.083 226.265 335.133 226.132 335.133 225.969C335.133 225.791 335.083 225.652 334.984 225.553C334.887 225.451 334.748 225.4 334.568 225.4C334.39 225.4 334.25 225.451 334.149 225.553C334.05 225.652 334 225.791 334 225.969C334 226.132 334.051 226.265 334.152 226.369ZM341.465 227.548V228.241H340.956V229.209H340.09V228.241H338.308V227.468L339.963 224.736H340.956V227.548H341.465ZM338.963 227.548H340.09V225.605L338.963 227.548ZM343.622 226.288C344.021 226.288 344.348 226.424 344.603 226.695C344.859 226.966 344.988 227.312 344.988 227.735C344.988 228.155 344.863 228.525 344.612 228.846C344.362 229.167 343.973 229.327 343.445 229.327C342.878 229.327 342.46 229.09 342.191 228.616C341.982 228.246 341.878 227.768 341.878 227.182C341.878 226.839 341.892 226.559 341.921 226.344C341.973 225.961 342.073 225.643 342.222 225.388C342.35 225.171 342.518 224.996 342.725 224.864C342.934 224.731 343.183 224.665 343.473 224.665C343.891 224.665 344.224 224.772 344.473 224.988C344.721 225.201 344.861 225.485 344.892 225.841H344.01C344.01 225.769 343.982 225.689 343.926 225.602C343.831 225.462 343.687 225.391 343.495 225.391C343.207 225.391 343.002 225.553 342.88 225.875C342.814 226.053 342.768 226.316 342.744 226.664C342.853 226.533 342.981 226.438 343.125 226.378C343.27 226.318 343.436 226.288 343.622 226.288ZM343.026 227.132C342.852 227.267 342.765 227.484 342.765 227.784C342.765 228.026 342.831 228.224 342.961 228.377C343.091 228.53 343.257 228.607 343.458 228.607C343.654 228.607 343.808 228.533 343.92 228.386C344.034 228.237 344.091 228.045 344.091 227.809C344.091 227.546 344.027 227.346 343.898 227.207C343.77 227.066 343.613 226.996 343.427 226.996C343.275 226.996 343.142 227.041 343.026 227.132ZM346.512 225.304C346.512 225.617 346.435 225.863 346.282 226.043C346.131 226.223 345.918 226.34 345.643 226.394V226.068C345.845 226.004 345.985 225.895 346.062 225.742C346.103 225.651 346.121 225.559 346.114 225.466H345.627V224.649H346.512V225.304ZM349.625 225.605C349.526 225.738 349.478 225.915 349.482 226.136H348.657C348.665 225.913 348.703 225.701 348.771 225.5C348.844 225.324 348.958 225.161 349.113 225.013C349.229 224.907 349.366 224.826 349.526 224.77C349.685 224.715 349.881 224.687 350.112 224.687C350.543 224.687 350.889 224.798 351.152 225.022C351.417 225.243 351.549 225.541 351.549 225.916C351.549 226.181 351.471 226.404 351.314 226.586C351.214 226.7 351.111 226.778 351.003 226.819C351.084 226.819 351.2 226.888 351.351 227.027C351.576 227.236 351.689 227.521 351.689 227.884C351.689 228.264 351.557 228.6 351.292 228.889C351.029 229.177 350.639 229.321 350.122 229.321C349.484 229.321 349.041 229.113 348.793 228.697C348.663 228.475 348.59 228.186 348.576 227.828H349.445C349.445 228.008 349.474 228.157 349.532 228.275C349.639 228.492 349.835 228.601 350.119 228.601C350.292 228.601 350.443 228.542 350.572 228.424C350.702 228.304 350.767 228.132 350.767 227.908C350.767 227.613 350.647 227.415 350.407 227.316C350.271 227.26 350.055 227.232 349.762 227.232V226.599C350.049 226.594 350.25 226.567 350.364 226.515C350.56 226.428 350.659 226.252 350.659 225.987C350.659 225.815 350.608 225.676 350.507 225.568C350.407 225.461 350.266 225.407 350.084 225.407C349.875 225.407 349.722 225.473 349.625 225.605ZM353.598 229.339C353.261 229.339 352.958 229.24 352.689 229.041C352.42 228.841 352.265 228.549 352.226 228.166H353.108C353.128 228.299 353.184 228.406 353.275 228.489C353.366 228.572 353.487 228.613 353.638 228.613C353.93 228.613 354.135 228.452 354.253 228.129C354.317 227.951 354.357 227.691 354.374 227.35C354.293 227.451 354.207 227.529 354.116 227.583C353.951 227.682 353.747 227.732 353.505 227.732C353.147 227.732 352.829 227.608 352.552 227.362C352.275 227.114 352.136 226.757 352.136 226.291C352.136 225.809 352.275 225.419 352.552 225.121C352.831 224.821 353.193 224.671 353.638 224.671C354.323 224.671 354.793 224.974 355.048 225.581C355.192 225.924 355.265 226.376 355.265 226.937C355.265 227.481 355.195 227.935 355.057 228.3C354.792 228.993 354.306 229.339 353.598 229.339ZM353.288 225.537C353.118 225.669 353.033 225.894 353.033 226.211C353.033 226.478 353.087 226.678 353.194 226.813C353.304 226.945 353.472 227.011 353.697 227.011C353.819 227.011 353.934 226.976 354.042 226.906C354.243 226.778 354.343 226.555 354.343 226.239C354.343 225.984 354.283 225.782 354.163 225.633C354.045 225.484 353.883 225.41 353.676 225.41C353.525 225.41 353.395 225.452 353.288 225.537ZM358.285 226.155C358.049 226.49 357.851 226.836 357.692 227.191C357.566 227.471 357.452 227.812 357.351 228.216C357.249 228.619 357.199 228.95 357.199 229.209H356.28C356.307 228.402 356.572 227.563 357.074 226.692C357.399 226.152 357.671 225.775 357.891 225.562H355.647L355.659 224.767H358.837V225.459C358.705 225.59 358.521 225.822 358.285 226.155ZM360.318 225.304C360.318 225.617 360.241 225.863 360.088 226.043C359.937 226.223 359.724 226.34 359.449 226.394V226.068C359.652 226.004 359.791 225.895 359.868 225.742C359.909 225.651 359.927 225.559 359.921 225.466H359.433V224.649H360.318V225.304ZM361.851 225.304C361.851 225.617 361.775 225.863 361.622 226.043C361.471 226.223 361.257 226.34 360.982 226.394V226.068C361.185 226.004 361.325 225.895 361.401 225.742C361.443 225.651 361.46 225.559 361.454 225.466H360.967V224.649H361.851V225.304Z" fill="#575757"/>
<path d="M118.479 274.746C118.479 272.698 120.139 271.038 122.187 271.038H147.987C150.035 271.038 151.695 272.698 151.695 274.746V276.206C151.695 277.084 150.983 277.795 150.106 277.795H120.068C119.19 277.795 118.479 277.084 118.479 276.206V274.746Z" fill="white" stroke="#E6772F" stroke-width="1.05947"/>
<path fill-rule="evenodd" clip-rule="evenodd" d="M279.463 350.981H273.619C273.085 349.767 273.533 348.318 274.704 347.631L329.605 315.422L267.394 285.339L256.725 292.543L214.778 340.229C213.812 341.328 212.138 341.435 211.04 340.469C209.942 339.503 209.834 337.829 210.801 336.731L252.972 288.788L253.197 288.533L253.478 288.343L261.878 282.671L243.966 274.009L243.015 273.55L242.641 272.562L237.487 258.927C236.969 257.558 237.659 256.03 239.028 255.512C240.396 254.995 241.925 255.685 242.442 257.053L247.223 269.7L266.956 279.243L280.186 270.309L280.766 269.918L281.464 269.864L338.161 265.465L338.623 265.429L339.071 265.553L367.852 273.499L372.993 246.356L241.036 254.449L214.734 265.277C213.381 265.834 211.833 265.189 211.277 263.837C210.72 262.484 211.365 260.936 212.717 260.379L239.426 249.383L239.833 249.216L240.272 249.189L374.692 240.945C375.271 240.495 376.034 240.286 376.811 240.433C377.126 240.493 377.418 240.606 377.678 240.762L447.893 236.455L422.813 205.911L386.635 183.443L370.476 189.55L403.416 208.637L400.76 213.22L363.145 191.424L293.524 182.769C292.073 182.588 291.042 181.265 291.223 179.813C291.403 178.362 292.726 177.331 294.178 177.512L324.469 181.278V179.26V164.869L297.196 155.371C295.814 154.89 295.084 153.38 295.565 151.999C296.046 150.618 297.556 149.888 298.938 150.369L327.988 160.485L329.766 161.104V162.986V177.215L364.21 186.219L364.282 186.228L380.966 179.923L299.951 129.61C298.708 128.838 298.326 127.205 299.098 125.963C299.87 124.72 301.503 124.338 302.745 125.11L332.987 143.891C333.1 143.836 333.217 143.789 333.34 143.75L397.913 123.124L386.514 110.199L384.035 107.389L387.512 105.99L425.846 90.5683L405.655 65.6931L402.751 62.1143L407.305 61.4066L475.248 50.8506L476.061 56.0851L412.673 65.9335L431.098 88.6332L497.768 81.1934V86.5237L431.793 93.8858L431.685 93.9293C431.366 94.1449 431.014 94.2823 430.654 94.3442L392.966 109.506L436.631 159.015L497.768 151.568V156.904L437.402 164.258L437.34 164.281C436.971 164.539 436.554 164.69 436.129 164.739L392.877 181.084L425.979 201.641L426.351 201.872L426.629 202.211L454.418 236.055L497.768 233.397V238.704L458.567 241.108L497.768 288.851V294.755L496.569 295.739L475.115 269.609L436.922 281.972L362.93 325.652L369.974 329.058L370.353 329.241L370.656 329.533L375.084 333.788L496.959 299.424L497.768 302.291V304.7L379.512 338.043L390.337 348.446L387.901 350.981H385.329L374.328 340.408L362.713 350.981H356.339C356.285 350.2 356.575 349.404 357.199 348.836L370.499 336.729L367.289 333.644L357.451 328.887L320.025 350.981H313.298C313.03 349.877 313.498 348.682 314.527 348.075L351.722 326.117L335.344 318.197L279.463 350.981ZM431.886 350.981H424.497C424.47 350.919 424.446 350.856 424.423 350.792C423.939 349.412 424.665 347.9 426.045 347.416L476.182 329.822L476.608 329.673H477.059H497.768V329.791C497.768 331.578 497.546 333.313 497.13 334.97H477.51L431.886 350.981ZM497.768 181.073V186.402L464.668 199.484L452.465 215.606C451.582 216.772 449.921 217.002 448.754 216.119C447.588 215.236 447.358 213.575 448.241 212.408L460.892 195.695L461.34 195.103L462.03 194.83L497.642 180.755L497.768 181.073ZM338.87 147.544L401.74 127.463L431.248 160.92L387.208 177.564L338.87 147.544ZM452.041 241.508L378.448 246.022L371.639 281.969L388.44 304.441L434.481 277.261L434.733 277.112L435.012 277.022L471.503 265.211L452.041 241.508ZM338.108 270.783L366.863 278.721L366.218 282.128L366.001 283.273L366.699 284.207L383.851 307.15L357.202 322.882L272.472 281.91L282.571 275.091L338.108 270.783Z" fill="url(#paint4_linear_45_545)"/>
<defs>
<radialGradient id="paint0_radial_45_545" cx="0" cy="0" r="1" gradientUnits="userSpaceOnUse" gradientTransform="translate(335.916 264.112) rotate(90) scale(6.41893 11.4884)">
<stop/>
<stop offset="1" stop-opacity="0.2"/>
</radialGradient>
<radialGradient id="paint1_radial_45_545" cx="0" cy="0" r="1" gradientUnits="userSpaceOnUse" gradientTransform="translate(335.917 264.112) rotate(90) scale(9.83426 17.6011)">
<stop/>
<stop offset="1" stop-opacity="0.2"/>
</radialGradient>
<radialGradient id="paint2_radial_45_545" cx="0" cy="0" r="1" gradientUnits="userSpaceOnUse" gradientTransform="translate(335.915 264.112) rotate(90) scale(13.377 23.9417)">
<stop/>
<stop offset="1" stop-opacity="0.2"/>
</radialGradient>
<radialGradient id="paint3_radial_45_545" cx="0" cy="0" r="1" gradientUnits="userSpaceOnUse" gradientTransform="translate(335.915 264.112) rotate(90) scale(18.0463 32.2987)">
<stop/>
<stop offset="1" stop-opacity="0.2"/>
</radialGradient>
<linearGradient id="paint4_linear_45_545" x1="512.456" y1="335.321" x2="336.117" y2="145.104" gradientUnits="userSpaceOnUse">
<stop stop-color="#E6772F"/>
<stop offset="1" stop-color="#E6772F" stop-opacity="0"/>
</linearGradient>
</defs>
</svg>
