<svg xmlns="http://www.w3.org/2000/svg" width="430" height="307" fill="none" xmlns:v="https://vecta.io/nano"><path d="M43.729 71.045c2.231-17.848 7.649-24.86 15.298-33.147 6.492-10.838 37.441-33.312 109.296-36.5 89.819-3.985 166.762 5.824 187.914 11.342s35.078 21.626 39.847 32.25 8.889 26.883 16.477 29.485 6.071 10.407 5.42 19.946-.32 18.725 5.23 25.049 5.861 14.161 6.548 32.172.29 33.857-6.548 43.183c-5.471 7.46-7.254 9.463-7.461 9.533l-12.848 11.605 1.657 10.776-11.398 16.993-2.901 7.875-10.776 4.767-52.431 38.338-22.174 6.839-31.085-5.803-21.972-17.176-86.224-17.147-68.587-14.697-35.165 7.299-22.436-2.317-17.803-18.412-10.676-18.037c-2.391-1.553-7.673-5.88-9.681-10.757-2.51-6.095 2.151-60.597 2.51-82.828s21.801-19.077 29.132-20.352 8.605-12.43 10.837-30.278z" fill="#fff"/><g fill="#000"><path d="M278.366 54.224c-2.382 1.218-2.946 2.918-2.603 5.529.89 6.838 1.309 13.74 1.978 20.608.617 6.316-1.107 11.929-4.33 17.359-4.006 6.754-7.629 13.737-11.327 20.669-2.188 4.106-5.328 7.177-9.323 9.498-.966.563-1.823 1.507-2.424 2.466-.89 1.423-1.887 2.48-3.618 2.773-1.435.24-2.831.701-4.266.944-2.306.388-3.12 1.233-3.017 3.619l1.297 30.38c.145 8.546-.19 17.103-.51 25.65-.217 5.753-.704 11.495-1.194 17.233l-2.576 28.154-.487 5.296c-.309 3.626-2.036 4.578-5.476 3.725-7.915-1.959-15.86-3.843-23.862-5.403l-48.142-9.044-37.719-7.961-13.938-2.922c-4.171-.814-6.61-3.295-7.919-7.279l-8.367-24.448c-2.629-7.169-6.229-13.896-10.761-20.045-5.289-7.176-7.23-15.403-7.972-24.029-.46-5.361-.734-10.742-.966-16.118-.065-1.534.304-3.086.339-4.741-1.017 3.21-5.719 5.975-9.281 5.026-5.05-1.353-8.539-5.902-12.701-8.984-1.111-.816.087-1.336.004-1.351-3.955-.713-7.785-1.477-11.647-2.526-4.847-1.312-3.621-1.19-3.474-7.751l9.707 3.154c-2.397 4.068-2.112 4.711 2.226 5.579 1.849.369 3.725.624 5.574.932.477-1.951-.162-3.096-1.918-3.436-.312-.061-.62-.137-.928-.202-3.622-.791-3.95-1.286-3.268-5.399 1.895.152 3.832.236 5.742.494 1.088.145 1.815-.049 1.83-1.221.046-3.455 2.169-4.962 5.141-5.94 2.173-.711 4.231-1.769 6.244-2.956-6.111 2.416-12.431 3.729-19.143 4.322l.784-1.415c-3.79-1.073-7.629-2.844-11.586-2.538-1.027.08-2.116-.609-3.002-1.332 13.151 0 9.77-30.655 15.433-40.844 6.225-11.198 15.688-17.804 28.264-19.642 6.686-.978 13.485-1.541 20.239-1.636 10.259-.145 20.529.137 30.787.495l42.533 1.895 29.958 1.903 45.223 4.029 26.266 2.774c3.273.35 6.176 1.378 8.17 4.665l.008-.008zM180.575 237.02c-2.85-26.004-6.472-51.509-7.157-77.422-2.799-.184-11.88.465-12.359-3.512-.286-2.298-.685-4.585-.841-6.891-.092-1.381.563-2.21 2.237-2.009 2.702.324 5.434.4 8.143.662 2.447.236 2.466.153 2.295-2.378-.29-4.334-.99-8.748 1.51-12.766.103-.167.012-.457.012-.757l-5.373-.358-28.466-1.381c-8.839-.552-17.671-1.301-26.495-2.112l-28.899-2.865c-3.413-.289-7.074-2.139-10.278.818-.08.076-.243.103-.362.095-2.386-.182-2.713 1.359-2.633 3.185.278 6.263.35 12.545.928 18.782.632 6.826 1.887 13.531 5.753 19.486 3.204 4.939 6.446 9.893 9.147 15.11 5.354 10.334 8.744 21.453 12.081 32.556 1.103 3.672 3.253 5.772 7.032 6.556l57.426 12.055 16.297 3.146zm-6.073-77.422c-.114.78-.141 1.937-.091 3.254.16 4.239.373 8.485.765 12.709l3.748 38.366 2.302 21.526c.118 1.111.46 1.83 1.769 2.043 4.311.693 8.615 1.469 12.899 2.313 11.785 2.325 23.82 3.452 35.266 7.42 2.214.769 3.531-.194 3.858-2.56.346-2.504.613-5.023.841-7.542l2.173-24.958c.544-7.199 1.096-14.406 1.263-21.62.228-9.752.217-19.516.072-29.269-.129-8.828-.571-17.652-.879-26.635-.019 0-.468-.13-.867-.042-1.469.331-2.588.243-3.033-1.56-.091-.369-1.088-.731-1.667-.727-2.404.011-4.809.255-7.214.247l-25.658-.22-19.177-.408c-5.354-.171-5.392-.254-6.948 3.893-1.153 3.073-.054 10.392-.054 10.392s.636 2.157 2.124 2.214c2.469.095 4.958.133 7.389.506 1.043.16 2.527.891 2.843 1.728 1.126 2.998.726 6.134.346 8.755l-12.07.175zM90.88 233.044c6.471-2.313 12.827-1.035 19.263.384l79.089 17.203c10.091 2.154 20.284 3.809 30.391 5.906 6.164 1.278 12.062 3.329 17.298 7.073 1.274.91 3.226.929 4.897 1.176.304.046.989-.75 1.08-1.233 1.831-9.574 3.87-19.12 5.324-28.751 2.172-14.41 14.459-26.693 28.998-28.523 13.276-1.67 24.927 2.409 35.445 10.148 10.182 7.492 17.343 17.329 21.529 29.265 2.287 6.522 3.295 13.272 2.815 20.19-.098 1.442.339 1.693 1.606 1.282 4.323-1.404 7.903-4.029 11.237-6.971l18.043-16.339c.697-.639 1.226-1.64 1.458-2.568.666-2.675 1.91-4.935 3.965-6.781l35.642-32.042c2.325-2.084 6.365-1.467 8.685-3.556l5.311-4.781c.127-.114.313-.137.465-.058.198.103.278.343.183.544-.409.861-.802 1.729-1.243 2.573-.62 1.187-1.526 2.283-1.895 3.539-1.758 5.97-4.653 11.198-9.315 15.406l-4.093 3.75c-3.79 3.508-3.212 9.183.402 12.871 2.596 2.648 4.806 5.689 7.082 8.634.989 1.278.559 2.538-.697 3.466l-6.594 4.794c-1.404 1.07-2.69 2.295-4.071 3.398-1.606 1.279-2.706 1.138-4.06-.391-.67-.758-1.317-1.557-2.085-2.207-1.979-1.682-4.65-1.058-5.548 1.373-.735 1.99-1.655 4.068-1.69 6.123-.049 2.948-1.761 4.147-3.892 5.456-3.048 1.872-6.027 3.881-8.881 6.039-10.669 8.069-19.862 18.269-31.415 25.102-7.924 4.678-15.344 8.72-24.356 11.453-5.054 1.526-10.228 1.088-15.263.213-15.933-2.778-31.289-6.291-46.707-11.035l-19.718-6.05c-3.904-1.217-7.743-2.648-11.662-3.801-3.988-1.176-8.029-2.18-12.07-3.162l-14.509-3.333c-5.258-1.073-10.582-1.849-15.84-2.93-5.069-1.043-10.088-2.348-15.141-3.474-3.325-.742-6.693-1.282-10.003-2.078-3.604-.863-7.162-1.917-10.742-2.88-.365-.099-.746-.122-1.119-.19-2.72-.499-5.46-.898-8.15-1.526l-18.946-4.582c-9.052-2.172-18.291-2.785-27.503-2.161-7.698.525-15.395.929-23.062.525-10.839-.572-25.403-1.172-34.953-6.978-13.531-8.158-21.145-20.361-24.581-35.528-.677-2.995-2.013-5.837-2.957-8.775-2.679-8.352-2.431-16.62 1.134-24.664 5.209-11.754 17.431-16.91 30.365-12.899 10.209 3.165 17.918 9.725 24.421 17.963 6.096 7.713 9.524 16.667 12.256 25.951l4.81 16.807c.799 2.789 3.904 4.056 6.647 2.724l2.92-1.078zm-46.785-4.219l-.076-.438c-.004-.022-.027-.036-.049-.03-.102.03-.21.048-.297.102-.93.579-1.718 1.581-2.286 2.814-.86 1.868 1.03 2.114 1.745.185.497-1.342 2.139-1.687 3.232-.762l6.574 5.521c.731.603 1.981-.464 1.423-1.229a5.83 5.83 0 0 0-3.181-2.241c-2.526-.761-4.733-2.576-7.085-3.923zm272.402 17.862c-2.702-3.884-6.035-7.141-9.874-9.887-2.195-1.351-4.311-2.869-6.606-4.019-8.919-4.467-24.192-5.308-32.495 4.293-4.528 5.239-6.773 10.985-6.982 17.541-.316 9.943 3.105 18.786 9.387 26.453 7.378 8.999 16.567 14.84 28.489 15.46 11.323.59 20.581-5.301 24.512-15.559 2.846-7.424 2.34-14.931-.031-22.34-1.388-4.341-3.222-8.518-6.398-11.938zm-260.919-1.17c.328-2.721.327-2.839-1.11-3.143-3.463-.738-6.929-1.484-10.422-2.055-1.853-.304-3.778-.414-5.297 1.206-.576.611-1.634.179-2.196-.445-1.665-1.852-3.307-3.602-5.242-5.181-1.244-1.016-1.145-3.409.44-3.666 2.468-.393 4.704-2.432 5.607-4.864.378-1.016-.673-1.592-1.383-.773-.499.577-1.502.689-1.989.102l-11.983-14.43c-.146-.176-.432-.25-.657-.208-.411.076-.724-.27-.689-.686.262-3.169.454-6.304.881-9.402.141-1.028.833-2.42 1.663-2.801 1.164-.536 1.389-1.24 1.61-2.256.137-.64.361-1.404.818-1.808 2.515-2.226 5.373-3.949 8.805-4.003 1.446-.024 2.894.083 4.285.217.448.044.569-.559.129-.654-7.043-1.518-13.108.091-17.652 5.92-2.987 3.832-4.216 8.375-4.323 13.139-.244 10.754 3.611 20.091 10.498 28.181 4.482 5.266 9.931 9.204 16.841 10.768 8.638 1.952 15.989-1.659 19.684-9.699 1.815-3.95 2.275-8.135 2.173-12.42-.004-.229-.311-.3-.409-.092l-.18.376a.31.31 0 0 1-.522.059l-1.685-2.122a2.01 2.01 0 0 0-3.046-.118l-.711.771c-.986 1.077-3.463.7-3.284 2.645.125 1.373 1.244 2.697 2.051 3.957 1.18 1.841 2.135 3.908 4.524 4.657.354.111.765 1.328.559 1.724-1.674 3.211-4.002 5.779-7.788 7.104zm322.153-7.477c-1.065 1.161-2.187 1.895-2.533 2.892-.361 1.054 1.872 3.215 3.09 3.592 2.161.666 4.364 1.278 6.412 2.214 3.173 1.454 2.598 1.484 4.531-1.575.24-.38.004-1.564-.334-1.735-3.573-1.819-7.214-3.508-11.163-5.387zM47.112 219.277c-.015-2.5-1.762-4.665-3.6-4.703-1.214-.023-2.314 1.279-2.321 2.747-.008 2.162 1.868 4.277 3.775 4.243 1.67-.027 2.108-1.107 2.146-2.287zm5.742-18.869c-.003-1.266-.457-2.09-1.104-2.723-1.176-1.152-3.872.229-3.554 1.844.11.559.966 1.313 1.541 1.362 1.007.091 2.056-.292 3.117-.483zm-23.828 2.807l-.111.164c-.139.205-.149.473-.015.681.651 1.011 1.417 1.829 2.285 2.474 1.491 1.108 2.192-.618.614-1.598l-2.772-1.722zm24.944 8.001a.39.39 0 0 0-.249.41.39.39 0 0 0 .443.343l3.746-.522c1.853-.258 2.989-2.841 1.23-2.204-1.735.628-3.45 1.31-5.169 1.973zm6.843 5.602c-1.606.173-.965 1.71.64 1.528 1.365-.154 1.568-1.523.195-1.562a6.38 6.38 0 0 0-.836.034zm-7.341-1.424c-.329-.797-1.292-1.159-2.064-.775-.406.202-.746.423-.94.735-.255.407.289 1.865.784 2.059.303.118.647.136 1.021.108.98-.074 1.573-1.219 1.199-2.127zm-7.947-6.379c.169-2.142-3.561.884-1.48 1.419 1.035.267 1.4-.415 1.48-1.419zm3.936 16.957c.659.943 3.432 1.035 2.761.101a9.58 9.58 0 0 0-2.18-2.131c-.148-.106-1.32.887-1.29.94.217.367.453.723.709 1.09zm-12.647-11.614c.788 1.063 2.745.346 2.276-.891-.5-1.32-3.047-.494-2.371.744a1.26 1.26 0 0 0 .094.147zm-9.35-3.701a.47.47 0 0 0-.658.224.47.47 0 0 0 .23.617l6.693 3.154a.26.26 0 0 0 .338-.115c.065-.124.019-.275-.104-.342l-6.501-3.538zm13.181 13.673c.523 1.188 2.643.366 1.991-.757-.594-1.023-2.413-.492-2.04.63a1.51 1.51 0 0 0 .049.127zm6.269-20.372c.122.002.242.007.361.013.205.009.373-.162.361-.367l-.467-7.699a.13.13 0 0 0-.136-.122c-.067.004-.119.061-.119.128v8.047zm-5.86-1.05l.055-.017c.178-.056.287-.235.255-.419l-1.201-6.954c-.022-.129-.147-.215-.276-.19s-.214.147-.19.275l1.353 7.302zm19.856 12.195l-.052-.195c-.039-.149-.198-.232-.343-.179l-3.945 1.428c-.126.046-.19.185-.139.309a.24.24 0 0 0 .302.135l4.177-1.497zM57.852 38.509l3.988-3.729c5.182-4.246 10.22-8.71 15.669-12.583 9.014-6.404 19.28-10.057 30.056-12.218 7.134-1.431 14.303-2.778 21.514-3.691 7.717-.978 15.494-1.72 23.268-2.009 15.254-.575 30.524-.906 45.794-1.046 11.784-.107 23.576.061 35.357.419l41.003 1.807 36.56 2.637 32.533 3.014c.392.038.769.228 1.317.396-19.488 9.868-39.792 17.918-59.333 27.576-.792.392-1.747.791-2.58.704L256.56 36.89l-21.559-2.005-32.964-2.572-21.247-1.248-41.194-1.857c-6.712-.274-13.428-.377-20.144-.517-6.016-.126-12.039-.381-18.051-.251-9.186.198-18.364.651-27.332 2.96-5.217 1.343-10.015 3.562-14.425 6.644-.457.32-.928.616-1.393.921l-.4-.453zm69.446-14.547v-.11h-11.149v.11h11.149zm22.332.019l.091-.126h-11.095v.126h11.004zm-24.6-1.237v.061h9.836v-.061h-9.836zm222.661 10.933c5.072-2.454 10.095-5.023 15.239-7.309 2.5-1.111 3.733-2.542 3.185-5.346-.122-.632.343-1.381.54-2.074.64.209 1.321.342 1.911.651 1.255.655 2.351 1.758 3.987.818.331-.19.986.194 1.682.358l-.757 1.309c3.668 3.269 7.485 6.221 10.765 9.68 6.696 7.062 10.932 15.669 14.113 24.752 1.792 5.118 3.124 10.411 4.379 15.692.487 2.051.343 4.292.229 6.431-.069 1.248.3 2.013 1.248 2.709.932.685 1.773 1.499 2.652 2.253l-.354.438-3.714-2.858-1.632 10.35c-.206 1.248-.301 2.576-.826 3.687-.62 1.316-1.4 2.816-2.546 3.596l-38.929 26.267a2.24 2.24 0 0 0-.849 1.628l.696 29.075c.12 5.281-.366 7.828-1.872 11.967-1.305 3.57-3.466 5.814-7.492 6.415-15.875 2.371-24.794 1.088-24.794 1.088s-1.278-.799-1.335-1.29c-.118-1.05.662-1.293 1.659-1.168 6.514.811 13.028.662 19.508-.312 2.249-.338 4.536-.727 6.667-1.484 3.835-1.362 5.335-4.794 5.624-8.375.426-5.277.228-10.608.163-15.916-.072-5.955-.148-11.914-.525-17.854-.129-2.051-1.21-4.029-1.761-6.065-.312-1.157-.438-2.363-.647-3.55l.51-.111c-.156-.099-.316-.285-.472-.281-8.339.168-15.211-14.549-15.909-21.088-1.416-13.314-4.243-26.282-12.139-37.537-7.71-10.997-14.251-8.654-26.293-5.601-4.01 1.012-7.751-.38-11.575-1.104 1.176.114 2.375.118 3.524.361 3.383.715 6.647.362 9.889-.757 1.614-.556 3.299-.906 4.932-1.412 3.607-1.123 7.05-1.819 9.573-5.613 3.832-5.757 10.422-8.246 16.617-10.917l5.38-2.405c2.165-1.035 3.604-.613 4.776 1.499.152.274.281.563.422.845l4.54-1.442h.011zm-9.184 91.333c5.182-.662 7.994 1.077 9.014 6.202 1.313 6.606 1.773 5.438-4.551 6.732-9.444 1.933-19.014 1.423-28.561.833l-11.183-.757c-1.248-.065-1.651-.624-1.64-1.777l.061-9.509c.027-1.983 1.187-2.991 3.227-2.846l9.634.719s21.272.752 23.999.403zm-35.288-5.297c8.394.358 16.342.902 24.295.982 7.857.08 15.723-.308 23.873-.118-.373.259-.731.723-1.115.75-3.622.243-7.252.407-10.962.825 2.686 1.035 6.099-.509 8.531 1.869-2.818-3.192 3.453-1.602 5.445-1.104.753.187 1.404 1.568 1.723 2.527.43 1.297.636 2.713.689 4.086l.392 14.235.358 13.284c.024 1.821-1.674 1.905-1.918.171-1.392-9.758-2.692-18.812-5.597-28.158-1.294-4.17-4.243-6.046-8.562-5.334-5.338.875-10.669.62-16.03.209-4.54-.35-9.11-.297-13.657-.559-2.362-.14-5.251-2.624-7.473-3.657l.008-.008z"/><path d="M347.692 33.677l-4.539 1.442c-.158-3.199 1.244-5.501 4.204-6.906l15.083-7.214 2.584-1.138c1.145 3.737.799 4.536-2.363 6.088l-13.603 6.758c-.495.247-.917.639-1.37.966l.004.004zm7.518 174.611l1.492 4.939.746 2.348c1.136 3.861.155 7.051-2.945 9.57-1.058.86-2.089 1.754-3.619 3.044l.023-9.528c.065-2.066.281-4.136.548-6.187.259-1.99 1.48-3.28 3.755-4.182v-.004zm61.973-36.829l.86-4.745 2.242-10.974c.087-.43.14-.959.414-1.244.583-.605 1.298-1.081 1.96-1.61.274.708.795 1.419.784 2.127-.046 3.417-.164 6.838-.411 10.247-.065.872-.518 1.865-1.107 2.519-1.26 1.397-2.721 2.61-4.102 3.897l-.643-.217h.003zm.228-93c-.202.81-.305 1.667-.628 2.428-1.187 2.781-1.731 5.635-1.69 8.683l.122 24.132c.023 1.811.4 3.637.784 5.422.247 1.145.822 2.154 2.371 1.88.296-.054.909.296.955.54.091.483.061 1.164-.225 1.514-1.016 1.256-2.869 1.073-3.611-.475-.612-1.283-1.122-2.748-1.16-4.148l-.506-26.011c-.126-4.041.175-7.953 1.67-11.72.339-.856.822-1.659 1.237-2.485l.677.236.004.004zm-23.403 30.859c-2.302 2.831-4.303 5.959-7.431 7.998-3.371 2.2-6.807 4.3-10.331 6.514-.533-1.172-.749-2.393.392-3.192l17.07-11.769.3.453v-.004zM89.27 230.796c-1.137.422-3.736 1.999-4.406-.091l-2.321-8.155c5.432-.578 5.881 3.567 7.583 7.649l-.86.601.004-.004zm319.382-51.08c-.795.898-1.495 1.906-2.397 2.682l-19.509 16.667-14.181 12.069c-2.021 1.701-3.741 4.072-7.138 3.303l-2.763-9.102.362-.159c.194.327.441.635.567.989l1.898 5.373c.936 2.317 2.352 2.656 4.258 1.039l35.749-30.422 2.915-2.622.235.187.004-.004zm4.001-36.172c-1.157-19.132-2.119-38.275-5.844-57.43 2.427 3.249 7.378 52.358 5.844 57.43zm-2.408-52.502l.411 2.04c.4 3.52-.011 7.378 1.328 10.487 2.067 4.802.621 9.535 1.157 14.254.012.087-.114.194-.54.852l-3.261-27.473.909-.164-.004.004zm9.659 43.036c-.384.076-.578.159-.616.114l-4.897-5.879c-.434-.556-.605-1.355-.754-2.074-.118-.571-.011-1.187-.007-1.784.658.247 1.598.304 1.914.78.612.92.791 2.111 1.294 3.12l3.066 5.723zm-30.911 16.004l-2.462 2.854c-.384-.849-1.152-1.747-1.054-2.535.13-1.019.956-1.948 1.481-2.918l2.035 2.599zm-17.036-26.012l2.82-1.792c.673 2.26.361 2.489-2.82 1.792zm-90.666-78.281l-1.038 5.084-.784-.179 1.191-5.11.628.206h.003zm25.326 191.007c3.836 2.751 7.169 6.004 9.874 9.886l2.055 3.565-12.172 3.318c4.36 1.256 10.962.301 13.329-2.12l4.018 11.028-.502.258c-.198-.114-.476-.175-.583-.342-1.621-2.637-3.953-3.067-6.746-2.295-.909.252-1.895.233-2.801.491-1.095.312-2.142.788-3.211 1.191 2.466.282 4.802.229 7.123.05 1.652-.126 2.801.494 3.63 1.883.681 1.134 1.435 2.203 3.193 1.21 0 3.113.27 5.898-.065 8.607-.491 3.984-1.69 7.797-4.551 10.849l-5.749-7.523 4.159-2.641-4.376-7.442-4.342 2.408c-1.031.552-1.541 1.29-1.054 2.466 2.31 5.563 5.396 10.43 11.362 12.728-2.481 4.844-7.408 6.069-12.051 8.348l1.013-4.916c.022-1.168.509-2.629-.016-3.451-2.34-3.668-3.474-8.425-8.489-9.859-.943-.27-1.705-1.168-2.553-1.777l-.556.586c2.185.156 1.888 1.724 2.089 3.322 4.171-.225 5.845 2.808 7.378 6.023.297.628.712 1.203.971 1.842.441 1.092.799 2.218 1.191 3.325-.457.35-.952 1.047-1.362.997-2.192-.247-4.365-.673-6.541-1.05l-13.044-2.283c-.617-.11-1.199-.403-1.811-.616-.019.152.015.376-.077.517-.578.902-1.183 1.789-1.78 2.679l-1.363-1.606c-.167-.19-.365-.346-.559-.51l-9.052-7.636c.924-1.545 1.465-1.774 4.277-2.025 1.111-.099 2.572-.068 3.238-.73 2.397-2.394 4.752-4.924 5.274-8.916-1.572 1.564-2.854 2.949-4.266 4.178-.357.312-1.385.419-1.685.149-3.136-2.801-6.492-5.445-9.167-8.645-2.119-2.535-3.383-5.788-5.068-8.798l-1.34.335c.453-2.028.929-3.843 1.256-5.685.83-4.657 3.006-8.542 6.316-11.91 7.306-7.427 19.954-7.324 27.778-3.143.65.347.909 1.424 1.35 2.162-1.343-.297-1.849.331-1.898 1.613-.054 1.385-.366 2.782-.263 4.148.145 1.921.571 3.824.875 5.734l.628-.076c0-1.062-.061-2.123.011-3.177l.651-7.862h.004l.213 3.459c1.229-1.457 1.617-2.538.94-3.832.555-.091 1.206-.407 1.655-.228 1.126.46 2.165 1.145 3.238 1.739h.004zm-11.29 28.39c1.804.026 3.193-1.401 3.197-3.28.007-2.474-2.105-4.768-4.437-4.829-1.925-.049-3.284 1.328-3.307 3.352-.026 2.321 2.272 4.726 4.547 4.757zm-9.436-15.167l-12.363-7.093c1.008 3.702 5.765 6.366 12.363 7.093zm6.735 22.488c-4.433 1.134-7.53 6.362-6.027 10.395l6.027-10.395zm9.885-14.665c.366 3.531 1.389 3.995 4.574 2.066-.651-3.485-1.427-3.836-4.574-2.066zm-22.042-1.001l.277-.529c-3.42-2.104-6.738-4.44-10.932-4.691l-.236.559 10.891 4.661zm16.536-8.181l-.544-.605c-.974.133-2.614.008-2.789.457-.392 1.001-.24 2.344.095 3.421.114.361 2.07.605 2.143.445.513-1.176.764-2.466 1.095-3.718zm-6.411-14.897l-.883.103 1.553 11.309c.551-3.885 1.152-7.774-.67-11.408v-.004zm-5.624 19.212c-.316 1.298-.837 2.196-.582 2.69.434.849 1.305 1.511 2.104 2.108.228.172 1.172-.099 1.202-.27.13-.749.335-1.731-.026-2.268-.544-.814-1.534-1.328-2.698-2.26zm14.395 15.875c1.605 3.28 2.366 3.508 4.687 1.385-1.681-2.869-2.587-3.135-4.687-1.385zm-8.817 1.035c2.047-2.142 2.07-2.466.624-3.68-.898-.749-1.666-1.137-2.45.168-1.343 2.245 1.016 2.325 1.822 3.508l.004.004zm-5.293 6.206l-.361-.365 4.794-4.388c-1.967.571-2.766 3.09-4.433 4.753zm24.067-16.137l7.443-2.112c-2.553.308-5.281.023-7.443 2.112zm-25.863 14.463l.552.289 3.467-5.685-.396-.228-3.623 5.624zm-7.777-23.706l-.16.415 5.982 3.185.197-.385-6.023-3.215h.004zm28.447 23.101l-.354.262 4.718 6.427.304-.228-4.668-6.461zm-10.438-28.261c1.302-2.625.175-5.049 0-7.431v7.431zm-141.019-97.745l6.507.522-.027.376-6.48-.544v-.354z"/></g></svg>